<svg width="20" height="20" viewBox="0 0 20 20" fill="none" xmlns="http://www.w3.org/2000/svg">
<path d="M1.06895e-05 10C1.06895e-05 4.477 4.47701 0 10 0C15.523 0 20 4.477 20 10C20 15.523 15.523 20 10 20C8.3351 20.0024 6.69615 19.5874 5.23301 18.793L1.11551 19.964C0.456011 20.1515 -0.152989 19.542 0.0345106 18.883L1.20551 14.764C0.412025 13.3016 -0.00242678 11.6638 1.06895e-05 10ZM6.00001 8.125C6.00001 8.47 6.28001 8.75 6.62501 8.75H13.375C13.4571 8.75 13.5384 8.73384 13.6142 8.70243C13.69 8.67102 13.7589 8.62498 13.817 8.56694C13.875 8.50891 13.921 8.44001 13.9524 8.36418C13.9838 8.28835 14 8.20708 14 8.125C14 8.04292 13.9838 7.96165 13.9524 7.88582C13.921 7.81 13.875 7.7411 13.817 7.68306C13.7589 7.62502 13.69 7.57899 13.6142 7.54758C13.5384 7.51617 13.4571 7.5 13.375 7.5H6.62501C6.28001 7.5 6.00001 7.78 6.00001 8.125ZM6.62501 11.25C6.45925 11.25 6.30028 11.3158 6.18307 11.4331C6.06586 11.5503 6.00001 11.7092 6.00001 11.875C6.00001 12.0408 6.06586 12.1997 6.18307 12.3169C6.30028 12.4342 6.45925 12.5 6.62501 12.5H11.375C11.5408 12.5 11.6997 12.4342 11.817 12.3169C11.9342 12.1997 12 12.0408 12 11.875C12 11.7092 11.9342 11.5503 11.817 11.4331C11.6997 11.3158 11.5408 11.25 11.375 11.25H6.62501Z" fill="#143D59"/>
<path d="M1.06895e-05 10C1.06895e-05 4.477 4.47701 0 10 0C15.523 0 20 4.477 20 10C20 15.523 15.523 20 10 20C8.3351 20.0024 6.69615 19.5874 5.23301 18.793L1.11551 19.964C0.456011 20.1515 -0.152989 19.542 0.0345106 18.883L1.20551 14.764C0.412025 13.3016 -0.00242678 11.6638 1.06895e-05 10ZM6.00001 8.125C6.00001 8.47 6.28001 8.75 6.62501 8.75H13.375C13.4571 8.75 13.5384 8.73384 13.6142 8.70243C13.69 8.67102 13.7589 8.62498 13.817 8.56694C13.875 8.50891 13.921 8.44001 13.9524 8.36418C13.9838 8.28835 14 8.20708 14 8.125C14 8.04292 13.9838 7.96165 13.9524 7.88582C13.921 7.81 13.875 7.7411 13.817 7.68306C13.7589 7.62502 13.69 7.57899 13.6142 7.54758C13.5384 7.51617 13.4571 7.5 13.375 7.5H6.62501C6.28001 7.5 6.00001 7.78 6.00001 8.125ZM6.62501 11.25C6.45925 11.25 6.30028 11.3158 6.18307 11.4331C6.06586 11.5503 6.00001 11.7092 6.00001 11.875C6.00001 12.0408 6.06586 12.1997 6.18307 12.3169C6.30028 12.4342 6.45925 12.5 6.62501 12.5H11.375C11.5408 12.5 11.6997 12.4342 11.817 12.3169C11.9342 12.1997 12 12.0408 12 11.875C12 11.7092 11.9342 11.5503 11.817 11.4331C11.6997 11.3158 11.5408 11.25 11.375 11.25H6.62501Z" fill="black" fill-opacity="0.2"/>
</svg>
