<svg width="24" height="24" viewBox="0 0 24 24" fill="none" xmlns="http://www.w3.org/2000/svg">
<path d="M4.50007 4.71484C3.76125 4.71484 3.05269 5.00834 2.53027 5.53076C2.00785 6.05318 1.71436 6.76174 1.71436 7.50056V16.5006C1.71436 17.2394 2.00785 17.9479 2.53027 18.4704C3.05269 18.9928 3.76125 19.2863 4.50007 19.2863H12.6429C13.3817 19.2863 14.0903 18.9928 14.6127 18.4704C15.1351 17.9479 15.4286 17.2394 15.4286 16.5006V7.50056C15.4286 6.76174 15.1351 6.05318 14.6127 5.53076C14.0903 5.00834 13.3817 4.71484 12.6429 4.71484H4.50007ZM19.8198 17.6946L16.7144 14.6517V9.42913L19.8104 6.31942C20.4849 5.64227 21.6412 6.1197 21.6412 7.07542V16.9291C21.6412 17.8788 20.4978 18.3588 19.8198 17.6946Z" fill="#143D59"/>
<path d="M4.50007 4.71484C3.76125 4.71484 3.05269 5.00834 2.53027 5.53076C2.00785 6.05318 1.71436 6.76174 1.71436 7.50056V16.5006C1.71436 17.2394 2.00785 17.9479 2.53027 18.4704C3.05269 18.9928 3.76125 19.2863 4.50007 19.2863H12.6429C13.3817 19.2863 14.0903 18.9928 14.6127 18.4704C15.1351 17.9479 15.4286 17.2394 15.4286 16.5006V7.50056C15.4286 6.76174 15.1351 6.05318 14.6127 5.53076C14.0903 5.00834 13.3817 4.71484 12.6429 4.71484H4.50007ZM19.8198 17.6946L16.7144 14.6517V9.42913L19.8104 6.31942C20.4849 5.64227 21.6412 6.1197 21.6412 7.07542V16.9291C21.6412 17.8788 20.4978 18.3588 19.8198 17.6946Z" fill="black" fill-opacity="0.2"/>
</svg>
