<svg width="19" height="17" viewBox="0 0 19 17" fill="none" xmlns="http://www.w3.org/2000/svg">
<path d="M3 3.75C3 1.67893 4.67893 0 6.75 0C8.82107 0 10.5 1.67893 10.5 3.75C10.5 5.82107 8.82107 7.5 6.75 7.5C4.67893 7.5 3 5.82107 3 3.75Z" fill="white"/>
<path d="M10.0994 0.381879C10.9645 1.24219 11.5 2.43355 11.5 3.75C11.5 5.06645 10.9645 6.25781 10.0994 7.11812C10.5974 7.36267 11.1577 7.5 11.75 7.5C13.8211 7.5 15.5 5.82107 15.5 3.75C15.5 1.67893 13.8211 0 11.75 0C11.1577 0 10.5974 0.137327 10.0994 0.381879Z" fill="white"/>
<path d="M0 12.75C0 10.6789 1.67893 9 3.75 9H9.75C11.8211 9 13.5 10.6789 13.5 12.75C13.5 14.8211 11.8211 16.5 9.75 16.5H3.75C1.67893 16.5 0 14.8211 0 12.75Z" fill="white"/>
<path d="M14.5 12.75C14.5 13.7749 14.1754 14.7239 13.6234 15.5H14.75C16.8211 15.5 18.5 13.8211 18.5 11.75C18.5 9.67893 16.8211 8 14.75 8H9.75C12.3734 8 14.5 10.1266 14.5 12.75Z" fill="white"/>
</svg>
