<svg width="20" height="19" viewBox="0 0 20 19" fill="none" xmlns="http://www.w3.org/2000/svg">
<path d="M19 7.75012H18.2153C18.0269 5.70157 17.0799 3.79733 15.56 2.41089C14.0402 1.02445 12.0572 0.255859 10 0.255859C7.94279 0.255859 5.95981 1.02445 4.43998 2.41089C2.92015 3.79733 1.97314 5.70157 1.78469 7.75012H1C0.801088 7.75012 0.610322 7.82914 0.46967 7.96979C0.329018 8.11044 0.25 8.30121 0.25 8.50012C0.253295 10.2837 0.744149 12.0325 1.66948 13.5573C2.59481 15.0821 3.9194 16.3249 5.5 17.1514V17.5001C5.5 17.8979 5.65804 18.2795 5.93934 18.5608C6.22064 18.8421 6.60218 19.0001 7 19.0001H13C13.3978 19.0001 13.7794 18.8421 14.0607 18.5608C14.342 18.2795 14.5 17.8979 14.5 17.5001V17.1514C16.0806 16.3249 17.4052 15.0821 18.3305 13.5573C19.2558 12.0325 19.7467 10.2837 19.75 8.50012C19.75 8.30121 19.671 8.11044 19.5303 7.96979C19.3897 7.82914 19.1989 7.75012 19 7.75012ZM14.2638 3.27168C14.4356 3.41231 14.6003 3.56075 14.7578 3.717C12.7613 4.41933 11.1114 5.86275 10.15 7.74825H7.38437C7.85313 6.43427 8.71613 5.29706 9.85547 4.49198C10.9948 3.68689 12.3549 3.25319 13.75 3.25012C13.9216 3.25012 14.0931 3.25856 14.2638 3.27168ZM11.8862 7.75012C12.7955 6.38595 14.1712 5.40029 15.7553 4.97793C16.2733 5.82042 16.5982 6.76714 16.7069 7.75012H11.8862ZM10 1.75012C10.6018 1.75052 11.2009 1.83155 11.7812 1.99106C10.3679 2.34166 9.07195 3.05863 8.02401 4.0697C6.97606 5.08078 6.21316 6.35023 5.81219 7.75012H3.29312C3.47917 6.10093 4.26562 4.57787 5.50254 3.47132C6.73946 2.36476 8.34035 1.75209 10 1.75012Z" fill="white"/>
</svg>
