<svg width="20" height="20" viewBox="0 0 20 20" fill="none" xmlns="http://www.w3.org/2000/svg">
<path d="M5.28557 7.857C5.05825 7.857 4.84023 7.94731 4.67948 8.10806C4.51874 8.2688 4.42843 8.48682 4.42843 8.71415C4.42843 8.94147 4.51874 9.15949 4.67948 9.32024C4.84023 9.48098 5.05825 9.57129 5.28557 9.57129C5.5129 9.57129 5.73092 9.48098 5.89167 9.32024C6.05241 9.15949 6.14272 8.94147 6.14272 8.71415C6.14272 8.48682 6.05241 8.2688 5.89167 8.10806C5.73092 7.94731 5.5129 7.857 5.28557 7.857ZM4.42843 14.7141C4.42843 14.4868 4.51874 14.2688 4.67948 14.1081C4.84023 13.9473 5.05825 13.857 5.28557 13.857C5.5129 13.857 5.73092 13.9473 5.89167 14.1081C6.05241 14.2688 6.14272 14.4868 6.14272 14.7141C6.14272 14.9415 6.05241 15.1595 5.89167 15.3202C5.73092 15.481 5.5129 15.5713 5.28557 15.5713C5.05825 15.5713 4.84023 15.481 4.67948 15.3202C4.51874 15.1595 4.42843 14.9415 4.42843 14.7141ZM0.571289 3.78557C0.571289 2.93309 0.909936 2.11553 1.51273 1.51273C2.11553 0.909936 2.93309 0.571289 3.78557 0.571289H16.2141C17.0666 0.571289 17.8842 0.909936 18.487 1.51273C19.0898 2.11553 19.4284 2.93309 19.4284 3.78557V16.2141C19.4284 17.0666 19.0898 17.8842 18.487 18.487C17.8842 19.0898 17.0666 19.4284 16.2141 19.4284H3.78557C2.93309 19.4284 2.11553 19.0898 1.51273 18.487C0.909936 17.8842 0.571289 17.0666 0.571289 16.2141V3.78557ZM3.14272 8.71415C3.14272 9.28247 3.36848 9.82751 3.77035 10.2294C4.17221 10.6312 4.71725 10.857 5.28557 10.857C5.8539 10.857 6.39894 10.6312 6.8008 10.2294C7.20267 9.82751 7.42843 9.28247 7.42843 8.71415C7.42843 8.14583 7.20267 7.60078 6.8008 7.19892C6.39894 6.79705 5.8539 6.57129 5.28557 6.57129C4.71725 6.57129 4.17221 6.79705 3.77035 7.19892C3.36848 7.60078 3.14272 8.14583 3.14272 8.71415ZM5.28557 12.5713C4.71725 12.5713 4.17221 12.7971 3.77035 13.1989C3.36848 13.6008 3.14272 14.1458 3.14272 14.7141C3.14272 15.2825 3.36848 15.8275 3.77035 16.2294C4.17221 16.6312 4.71725 16.857 5.28557 16.857C5.8539 16.857 6.39894 16.6312 6.8008 16.2294C7.20267 15.8275 7.42843 15.2825 7.42843 14.7141C7.42843 14.1458 7.20267 13.6008 6.8008 13.1989C6.39894 12.7971 5.8539 12.5713 5.28557 12.5713ZM9.14272 8.49986C9.14272 8.85472 9.43072 9.14272 9.78557 9.14272H16.2141C16.3846 9.14272 16.5482 9.07499 16.6687 8.95443C16.7893 8.83387 16.857 8.67036 16.857 8.49986C16.857 8.32936 16.7893 8.16585 16.6687 8.04529C16.5482 7.92473 16.3846 7.857 16.2141 7.857H9.78557C9.61508 7.857 9.45157 7.92473 9.33101 8.04529C9.21045 8.16585 9.14272 8.32936 9.14272 8.49986ZM9.78557 13.857C9.61508 13.857 9.45157 13.9247 9.33101 14.0453C9.21045 14.1659 9.14272 14.3294 9.14272 14.4999C9.14272 14.6704 9.21045 14.8339 9.33101 14.9544C9.45157 15.075 9.61508 15.1427 9.78557 15.1427H16.2141C16.3846 15.1427 16.5482 15.075 16.6687 14.9544C16.7893 14.8339 16.857 14.6704 16.857 14.4999C16.857 14.3294 16.7893 14.1659 16.6687 14.0453C16.5482 13.9247 16.3846 13.857 16.2141 13.857H9.78557ZM3.14272 3.78557C3.14272 4.14043 3.43072 4.42843 3.78557 4.42843H16.2141C16.3846 4.42843 16.5482 4.3607 16.6687 4.24014C16.7893 4.11958 16.857 3.95607 16.857 3.78557C16.857 3.61508 16.7893 3.45157 16.6687 3.33101C16.5482 3.21045 16.3846 3.14272 16.2141 3.14272H3.78557C3.61508 3.14272 3.45157 3.21045 3.33101 3.33101C3.21045 3.45157 3.14272 3.61508 3.14272 3.78557Z" fill="white"/>
</svg>
