<svg width="24" height="24" viewBox="0 0 24 24" fill="none" xmlns="http://www.w3.org/2000/svg">
<path d="M7.28557 9.85798C7.05825 9.85798 6.84023 9.94829 6.67948 10.109C6.51874 10.2698 6.42843 10.4878 6.42843 10.7151C6.42843 10.9425 6.51874 11.1605 6.67948 11.3212C6.84023 11.482 7.05825 11.5723 7.28557 11.5723C7.5129 11.5723 7.73092 11.482 7.89167 11.3212C8.05241 11.1605 8.14272 10.9425 8.14272 10.7151C8.14272 10.4878 8.05241 10.2698 7.89167 10.109C7.73092 9.94829 7.5129 9.85798 7.28557 9.85798ZM6.42843 16.7151C6.42843 16.4878 6.51874 16.2698 6.67948 16.109C6.84023 15.9483 7.05825 15.858 7.28557 15.858C7.5129 15.858 7.73092 15.9483 7.89167 16.109C8.05241 16.2698 8.14272 16.4878 8.14272 16.7151C8.14272 16.9425 8.05241 17.1605 7.89167 17.3212C7.73092 17.482 7.5129 17.5723 7.28557 17.5723C7.05825 17.5723 6.84023 17.482 6.67948 17.3212C6.51874 17.1605 6.42843 16.9425 6.42843 16.7151ZM2.57129 5.78655C2.57129 4.93407 2.90994 4.1165 3.51273 3.51371C4.11553 2.91091 4.93309 2.57227 5.78557 2.57227H18.2141C19.0666 2.57227 19.8842 2.91091 20.487 3.51371C21.0898 4.1165 21.4284 4.93407 21.4284 5.78655V18.2151C21.4284 19.0676 21.0898 19.8852 20.487 20.488C19.8842 21.0908 19.0666 21.4294 18.2141 21.4294H5.78557C4.93309 21.4294 4.11553 21.0908 3.51273 20.488C2.90994 19.8852 2.57129 19.0676 2.57129 18.2151V5.78655ZM5.14272 10.7151C5.14272 11.2834 5.36848 11.8285 5.77035 12.2304C6.17221 12.6322 6.71725 12.858 7.28557 12.858C7.8539 12.858 8.39894 12.6322 8.8008 12.2304C9.20267 11.8285 9.42843 11.2834 9.42843 10.7151C9.42843 10.1468 9.20267 9.60176 8.8008 9.19989C8.39894 8.79803 7.8539 8.57227 7.28557 8.57227C6.71725 8.57227 6.17221 8.79803 5.77035 9.19989C5.36848 9.60176 5.14272 10.1468 5.14272 10.7151ZM7.28557 14.5723C6.71725 14.5723 6.17221 14.798 5.77035 15.1999C5.36848 15.6018 5.14272 16.1468 5.14272 16.7151C5.14272 17.2834 5.36848 17.8285 5.77035 18.2304C6.17221 18.6322 6.71725 18.858 7.28557 18.858C7.8539 18.858 8.39894 18.6322 8.8008 18.2304C9.20267 17.8285 9.42843 17.2834 9.42843 16.7151C9.42843 16.1468 9.20267 15.6018 8.8008 15.1999C8.39894 14.798 7.8539 14.5723 7.28557 14.5723ZM11.1427 10.5008C11.1427 10.8557 11.4307 11.1437 11.7856 11.1437H18.2141C18.3846 11.1437 18.5482 11.076 18.6687 10.9554C18.7893 10.8348 18.857 10.6713 18.857 10.5008C18.857 10.3303 18.7893 10.1668 18.6687 10.0463C18.5482 9.92571 18.3846 9.85798 18.2141 9.85798H11.7856C11.6151 9.85798 11.4516 9.92571 11.331 10.0463C11.2104 10.1668 11.1427 10.3303 11.1427 10.5008ZM11.7856 15.858C11.6151 15.858 11.4516 15.9257 11.331 16.0463C11.2104 16.1668 11.1427 16.3303 11.1427 16.5008C11.1427 16.6713 11.2104 16.8348 11.331 16.9554C11.4516 17.076 11.6151 17.1437 11.7856 17.1437H18.2141C18.3846 17.1437 18.5482 17.076 18.6687 16.9554C18.7893 16.8348 18.857 16.6713 18.857 16.5008C18.857 16.3303 18.7893 16.1668 18.6687 16.0463C18.5482 15.9257 18.3846 15.858 18.2141 15.858H11.7856ZM5.14272 5.78655C5.14272 6.14141 5.43072 6.42941 5.78557 6.42941H18.2141C18.3846 6.42941 18.5482 6.36168 18.6687 6.24112C18.7893 6.12056 18.857 5.95705 18.857 5.78655C18.857 5.61606 18.7893 5.45254 18.6687 5.33198C18.5482 5.21142 18.3846 5.14369 18.2141 5.14369H5.78557C5.61508 5.14369 5.45157 5.21142 5.33101 5.33198C5.21045 5.45254 5.14272 5.61606 5.14272 5.78655Z" fill="#F4B41A"/>
</svg>
