<svg width="24" height="24" viewBox="0 0 24 24" fill="none" xmlns="http://www.w3.org/2000/svg">
<path d="M2.00001 12C2.00001 6.477 6.47701 2 12 2C17.523 2 22 6.477 22 12C22 17.523 17.523 22 12 22C10.3351 22.0024 8.69615 21.5874 7.23301 20.793L3.11551 21.964C2.45601 22.1515 1.84701 21.542 2.03451 20.883L3.20551 16.764C2.41202 15.3016 1.99757 13.6638 2.00001 12ZM8.00001 10.125C8.00001 10.47 8.28001 10.75 8.62501 10.75H15.375C15.4571 10.75 15.5384 10.7338 15.6142 10.7024C15.69 10.671 15.7589 10.625 15.817 10.5669C15.875 10.5089 15.921 10.44 15.9524 10.3642C15.9838 10.2883 16 10.2071 16 10.125C16 10.0429 15.9838 9.96165 15.9524 9.88582C15.921 9.81 15.875 9.7411 15.817 9.68306C15.7589 9.62502 15.69 9.57899 15.6142 9.54758C15.5384 9.51617 15.4571 9.5 15.375 9.5H8.62501C8.28001 9.5 8.00001 9.78 8.00001 10.125ZM8.62501 13.25C8.45925 13.25 8.30028 13.3158 8.18307 13.4331C8.06586 13.5503 8.00001 13.7092 8.00001 13.875C8.00001 14.0408 8.06586 14.1997 8.18307 14.3169C8.30028 14.4342 8.45925 14.5 8.62501 14.5H13.375C13.5408 14.5 13.6997 14.4342 13.817 14.3169C13.9342 14.1997 14 14.0408 14 13.875C14 13.7092 13.9342 13.5503 13.817 13.4331C13.6997 13.3158 13.5408 13.25 13.375 13.25H8.62501Z" fill="#F4B41A"/>
</svg>
