<svg width="24" height="24" viewBox="0 0 24 24" fill="none" xmlns="http://www.w3.org/2000/svg">
<path d="M7.4 7H4.6C4.44087 7 4.28826 7.06321 4.17574 7.17574C4.06321 7.28826 4 7.44087 4 7.6V16.4C4 16.4788 4.01552 16.5568 4.04567 16.6296C4.07583 16.7024 4.12002 16.7685 4.17574 16.8243C4.23145 16.88 4.29759 16.9242 4.37039 16.9543C4.44319 16.9845 4.52121 17 4.6 17H7.4C7.47879 17 7.55681 16.9845 7.62961 16.9543C7.70241 16.9242 7.76855 16.88 7.82426 16.8243C7.87998 16.7685 7.92417 16.7024 7.95433 16.6296C7.98448 16.5568 8 16.4788 8 16.4V7.6C8 7.44087 7.93679 7.28826 7.82426 7.17574C7.71174 7.06321 7.55913 7 7.4 7ZM19.4 7H16.6C16.4409 7 16.2883 7.06321 16.1757 7.17574C16.0632 7.28826 16 7.44087 16 7.6V16.4C16 16.4788 16.0155 16.5568 16.0457 16.6296C16.0758 16.7024 16.12 16.7685 16.1757 16.8243C16.2315 16.88 16.2976 16.9242 16.3704 16.9543C16.4432 16.9845 16.5212 17 16.6 17H19.4C19.4788 17 19.5568 16.9845 19.6296 16.9543C19.7024 16.9242 19.7685 16.88 19.8243 16.8243C19.88 16.7685 19.9242 16.7024 19.9543 16.6296C19.9845 16.5568 20 16.4788 20 16.4V7.6C20 7.44087 19.9368 7.28826 19.8243 7.17574C19.7117 7.06321 19.5591 7 19.4 7Z" fill="#F4B41A" stroke="#F4B41A" stroke-width="1.5" stroke-linecap="round" stroke-linejoin="round"/>
<path d="M1 14.4V9.6C1 9.44087 1.06321 9.28826 1.17574 9.17574C1.28826 9.06321 1.44087 9 1.6 9H3.4C3.55913 9 3.71174 9.06321 3.82426 9.17574C3.93679 9.28826 4 9.44087 4 9.6V14.4C4 14.5591 3.93679 14.7117 3.82426 14.8243C3.71174 14.9368 3.55913 15 3.4 15H1.6C1.44087 15 1.28826 14.9368 1.17574 14.8243C1.06321 14.7117 1 14.5591 1 14.4ZM23 14.4V9.6C23 9.44087 22.9368 9.28826 22.8243 9.17574C22.7117 9.06321 22.5591 9 22.4 9H20.6C20.4409 9 20.2883 9.06321 20.1757 9.17574C20.0632 9.28826 20 9.44087 20 9.6V14.4C20 14.5591 20.0632 14.7117 20.1757 14.8243C20.2883 14.9368 20.4409 15 20.6 15H22.4C22.5591 15 22.7117 14.9368 22.8243 14.8243C22.9368 14.7117 23 14.5591 23 14.4ZM8 12H16H8Z" fill="#F4B41A"/>
<path d="M8 12H16M1 14.4V9.6C1 9.44087 1.06321 9.28826 1.17574 9.17574C1.28826 9.06321 1.44087 9 1.6 9H3.4C3.55913 9 3.71174 9.06321 3.82426 9.17574C3.93679 9.28826 4 9.44087 4 9.6V14.4C4 14.5591 3.93679 14.7117 3.82426 14.8243C3.71174 14.9368 3.55913 15 3.4 15H1.6C1.44087 15 1.28826 14.9368 1.17574 14.8243C1.06321 14.7117 1 14.5591 1 14.4ZM23 14.4V9.6C23 9.44087 22.9368 9.28826 22.8243 9.17574C22.7117 9.06321 22.5591 9 22.4 9H20.6C20.4409 9 20.2883 9.06321 20.1757 9.17574C20.0632 9.28826 20 9.44087 20 9.6V14.4C20 14.5591 20.0632 14.7117 20.1757 14.8243C20.2883 14.9368 20.4409 15 20.6 15H22.4C22.5591 15 22.7117 14.9368 22.8243 14.8243C22.9368 14.7117 23 14.5591 23 14.4Z" stroke="#F4B41A" stroke-width="1.5" stroke-linecap="round" stroke-linejoin="round"/>
</svg>
